<?xml version="1.0" encoding="utf-8"?>
<!-- Svg Vector Icons : http://www.onlinewebfonts.com/icon -->
<!DOCTYPE svg PUBLIC "-//W3C//DTD SVG 1.1//EN" "http://www.w3.org/Graphics/SVG/1.1/DTD/svg11.dtd">
<svg version="1.1" xmlns="http://www.w3.org/2000/svg" xmlns:xlink="http://www.w3.org/1999/xlink" x="0px" y="0px" viewBox="0 0 256 256" enable-background="new 0 0 256 256" xml:space="preserve">
<metadata> Svg Vector Icons : http://www.onlinewebfonts.com/icon </metadata>
<g> <path fill="#000000" d="M128,246c-65.4,0-118-53.1-118-118S63.1,10,128,10s118,53.1,118,118S193.4,246,128,246z M128,23.6 C70.4,23.6,23.6,70.4,23.6,128c0,57.6,46.7,104.4,104.4,104.4c57.6,0,104.4-46.7,104.4-104.4C232.4,70.4,185.6,23.6,128,23.6z"/> <path fill="#000000" d="M128,191.5c-34.9,0-63.5-28.6-63.5-63.5c0-34.9,28.6-63.5,63.5-63.5c34.9,0,63.5,28.6,63.5,63.5 C191.5,162.9,162.9,191.5,128,191.5z M128,78.1c-27.7,0-49.9,22.2-49.9,49.9c0,27.7,22.2,49.9,49.9,49.9 c27.7,0,49.9-22.2,49.9-49.9C177.9,100.3,155.7,78.1,128,78.1z"/> <path fill="#000000" d="M128,163.4c-19.5,0-35.4-15.9-35.4-35.4c0-19.5,15.9-35.4,35.4-35.4c19.5,0,35.4,15.9,35.4,35.4 C163.4,147.5,147.5,163.4,128,163.4L128,163.4z M128,106.2c-11.8,0-21.8,9.5-21.8,21.8s9.5,21.8,21.8,21.8s21.8-9.5,21.8-21.8 S139.8,106.2,128,106.2z"/> <path fill="#000000" d="M128,106.2c-3.6,0-6.8-3.2-6.8-6.8V78.1c0-3.6,3.2-6.8,6.8-6.8s6.8,3.2,6.8,6.8v21.8 C134.8,103.5,131.6,106.2,128,106.2z M108,114.8c-1.8,0-3.6-0.5-5-1.8L87.6,97.6c-2.7-2.7-2.7-6.8,0-9.5c2.7-2.7,6.8-2.7,9.5,0 l15.4,15.4c2.7,2.7,2.7,6.8,0,9.5C111.2,113.9,109.8,114.8,108,114.8z M99.4,134.8H78.1c-3.6,0-6.8-3.2-6.8-6.8s3.2-6.8,6.8-6.8 h21.8c3.6,0,6.8,3.2,6.8,6.8S103.5,134.8,99.4,134.8z M92.6,170.2c-1.8,0-3.6-0.5-5-1.8c-2.7-2.7-2.7-6.8,0-9.5l15.4-15.4 c2.7-2.7,6.8-2.7,9.5,0c2.7,2.7,2.7,6.8,0,9.5l-15.4,15.4C96.2,169.8,94.4,170.2,92.6,170.2z M128,184.7c-3.6,0-6.8-3.2-6.8-6.8 v-21.8c0-3.6,3.2-6.8,6.8-6.8s6.8,3.2,6.8,6.8v21.8C134.8,182,131.6,184.7,128,184.7z M163.4,170.2c-1.8,0-3.6-0.5-5-1.8L143,153 c-2.7-2.7-2.7-6.8,0-9.5c2.7-2.7,6.8-2.7,9.5,0l15.4,15.4c2.7,2.7,2.7,6.8,0,9.5C167,169.8,165.2,170.2,163.4,170.2z M177.9,134.8 h-21.8c-3.6,0-6.8-3.2-6.8-6.8s3.2-6.8,6.8-6.8h21.8c3.6,0,6.8,3.2,6.8,6.8S182,134.8,177.9,134.8z M148,114.8 c-1.8,0-3.6-0.5-5-1.8c-2.7-2.7-2.7-6.8,0-9.5l15.4-15.4c2.7-2.7,6.8-2.7,9.5,0c2.7,2.7,2.7,6.8,0,9.5L152.5,113 C151.6,113.9,149.8,114.8,148,114.8z"/></g>
</svg>